<svg xmlns="http://www.w3.org/2000/svg" xmlns:xlink="http://www.w3.org/1999/xlink" width="500" zoomAndPan="magnify" viewBox="0 0 375 374.999991" height="500" preserveAspectRatio="xMidYMid meet" version="1.0"><path fill="#ff8000" d="M 187.5 0 C 184.429688 0 181.363281 0.0742188 178.300781 0.226562 C 175.234375 0.375 172.175781 0.601562 169.121094 0.902344 C 166.066406 1.203125 163.023438 1.578125 159.988281 2.03125 C 156.953125 2.480469 153.929688 3.003906 150.921875 3.601562 C 147.910156 4.203125 144.917969 4.875 141.941406 5.617188 C 138.964844 6.363281 136.007812 7.183594 133.070312 8.074219 C 130.136719 8.964844 127.222656 9.925781 124.332031 10.960938 C 121.445312 11.996094 118.582031 13.097656 115.746094 14.273438 C 112.910156 15.445312 110.105469 16.691406 107.332031 18.003906 C 104.558594 19.3125 101.820312 20.691406 99.113281 22.140625 C 96.40625 23.585938 93.738281 25.097656 91.105469 26.675781 C 88.472656 28.253906 85.882812 29.894531 83.332031 31.597656 C 80.777344 33.304688 78.269531 35.070312 75.804688 36.898438 C 73.339844 38.726562 70.921875 40.613281 68.550781 42.558594 C 66.179688 44.507812 63.855469 46.511719 61.582031 48.570312 C 59.308594 50.632812 57.085938 52.746094 54.917969 54.917969 C 52.746094 57.085938 50.632812 59.308594 48.570312 61.582031 C 46.511719 63.855469 44.507812 66.179688 42.5625 68.550781 C 40.613281 70.921875 38.726562 73.339844 36.898438 75.804688 C 35.070312 78.269531 33.304688 80.777344 31.597656 83.332031 C 29.894531 85.882812 28.253906 88.472656 26.675781 91.105469 C 25.097656 93.738281 23.585938 96.40625 22.140625 99.113281 C 20.691406 101.820312 19.3125 104.558594 18.003906 107.332031 C 16.691406 110.105469 15.445312 112.910156 14.273438 115.746094 C 13.097656 118.582031 11.996094 121.445312 10.960938 124.332031 C 9.925781 127.222656 8.964844 130.136719 8.074219 133.070312 C 7.183594 136.007812 6.363281 138.964844 5.621094 141.941406 C 4.875 144.917969 4.203125 147.910156 3.601562 150.921875 C 3.003906 153.929688 2.480469 156.953125 2.03125 159.988281 C 1.578125 163.023438 1.203125 166.066406 0.902344 169.121094 C 0.601562 172.175781 0.375 175.234375 0.226562 178.300781 C 0.0742188 181.363281 0 184.429688 0 187.5 C 0 190.570312 0.0742188 193.636719 0.226562 196.699219 C 0.375 199.765625 0.601562 202.824219 0.902344 205.878906 C 1.203125 208.933594 1.578125 211.976562 2.03125 215.011719 C 2.480469 218.046875 3.003906 221.070312 3.601562 224.078125 C 4.203125 227.089844 4.875 230.082031 5.621094 233.058594 C 6.363281 236.035156 7.183594 238.992188 8.074219 241.929688 C 8.964844 244.863281 9.925781 247.777344 10.960938 250.667969 C 11.996094 253.554688 13.097656 256.417969 14.273438 259.253906 C 15.445312 262.089844 16.691406 264.890625 18.003906 267.667969 C 19.3125 270.441406 20.691406 273.179688 22.140625 275.886719 C 23.585938 278.59375 25.097656 281.261719 26.675781 283.894531 C 28.253906 286.527344 29.894531 289.117188 31.597656 291.667969 C 33.304688 294.222656 35.070312 296.730469 36.898438 299.195312 C 38.726562 301.660156 40.613281 304.078125 42.5625 306.449219 C 44.507812 308.820312 46.511719 311.144531 48.570312 313.417969 C 50.632812 315.691406 52.746094 317.914062 54.917969 320.082031 C 57.085938 322.253906 59.308594 324.367188 61.582031 326.429688 C 63.855469 328.488281 66.179688 330.492188 68.550781 332.4375 C 70.921875 334.386719 73.339844 336.273438 75.804688 338.101562 C 78.269531 339.929688 80.777344 341.695312 83.332031 343.402344 C 85.882812 345.105469 88.472656 346.746094 91.105469 348.324219 C 93.738281 349.902344 96.40625 351.414062 99.113281 352.859375 C 101.820312 354.308594 104.558594 355.6875 107.332031 356.996094 C 110.105469 358.308594 112.910156 359.554688 115.746094 360.726562 C 118.582031 361.902344 121.445312 363.003906 124.332031 364.039062 C 127.222656 365.074219 130.136719 366.035156 133.070312 366.925781 C 136.007812 367.816406 138.964844 368.636719 141.941406 369.378906 C 144.917969 370.125 147.910156 370.796875 150.921875 371.398438 C 153.929688 371.996094 156.953125 372.519531 159.988281 372.96875 C 163.023438 373.421875 166.066406 373.796875 169.121094 374.097656 C 172.175781 374.398438 175.234375 374.625 178.300781 374.773438 C 181.363281 374.925781 184.429688 375 187.5 375 C 190.570312 375 193.636719 374.925781 196.699219 374.773438 C 199.765625 374.625 202.824219 374.398438 205.878906 374.097656 C 208.933594 373.796875 211.976562 373.421875 215.011719 372.96875 C 218.046875 372.519531 221.070312 371.996094 224.078125 371.398438 C 227.089844 370.796875 230.082031 370.125 233.058594 369.378906 C 236.035156 368.636719 238.992188 367.816406 241.929688 366.925781 C 244.863281 366.035156 247.777344 365.074219 250.667969 364.039062 C 253.554688 363.003906 256.417969 361.902344 259.253906 360.726562 C 262.089844 359.554688 264.894531 358.308594 267.667969 356.996094 C 270.441406 355.6875 273.179688 354.308594 275.886719 352.859375 C 278.59375 351.414062 281.261719 349.902344 283.894531 348.324219 C 286.527344 346.746094 289.117188 345.105469 291.667969 343.402344 C 294.222656 341.695312 296.730469 339.929688 299.195312 338.101562 C 301.660156 336.273438 304.078125 334.386719 306.449219 332.4375 C 308.820312 330.492188 311.144531 328.488281 313.417969 326.429688 C 315.691406 324.367188 317.914062 322.253906 320.082031 320.082031 C 322.253906 317.914062 324.367188 315.691406 326.429688 313.417969 C 328.488281 311.144531 330.492188 308.820312 332.441406 306.449219 C 334.386719 304.078125 336.273438 301.660156 338.101562 299.195312 C 339.929688 296.730469 341.695312 294.222656 343.402344 291.667969 C 345.105469 289.117188 346.746094 286.527344 348.324219 283.894531 C 349.902344 281.261719 351.414062 278.59375 352.859375 275.886719 C 354.308594 273.179688 355.6875 270.441406 356.996094 267.667969 C 358.308594 264.890625 359.554688 262.089844 360.726562 259.253906 C 361.902344 256.417969 363.003906 253.554688 364.039062 250.667969 C 365.074219 247.777344 366.035156 244.863281 366.925781 241.929688 C 367.816406 238.992188 368.636719 236.035156 369.378906 233.058594 C 370.125 230.082031 370.796875 227.089844 371.398438 224.078125 C 371.996094 221.070312 372.519531 218.046875 372.96875 215.011719 C 373.421875 211.976562 373.796875 208.933594 374.097656 205.878906 C 374.398438 202.824219 374.625 199.765625 374.773438 196.699219 C 374.925781 193.636719 375 190.570312 375 187.5 C 375 184.429688 374.925781 181.363281 374.773438 178.300781 C 374.625 175.234375 374.398438 172.175781 374.097656 169.121094 C 373.796875 166.066406 373.421875 163.023438 372.96875 159.988281 C 372.519531 156.953125 371.996094 153.929688 371.398438 150.921875 C 370.796875 147.910156 370.125 144.917969 369.378906 141.941406 C 368.636719 138.964844 367.816406 136.007812 366.925781 133.070312 C 366.035156 130.136719 365.074219 127.222656 364.039062 124.332031 C 363.003906 121.445312 361.902344 118.582031 360.726562 115.746094 C 359.554688 112.910156 358.308594 110.105469 356.996094 107.332031 C 355.6875 104.558594 354.308594 101.820312 352.859375 99.113281 C 351.414062 96.40625 349.902344 93.738281 348.324219 91.105469 C 346.746094 88.472656 345.105469 85.882812 343.402344 83.332031 C 341.695312 80.777344 339.929688 78.269531 338.101562 75.804688 C 336.273438 73.339844 334.386719 70.921875 332.441406 68.550781 C 330.492188 66.179688 328.488281 63.855469 326.429688 61.582031 C 324.367188 59.308594 322.253906 57.085938 320.082031 54.917969 C 317.914062 52.746094 315.691406 50.632812 313.417969 48.570312 C 311.144531 46.511719 308.820312 44.507812 306.449219 42.558594 C 304.078125 40.613281 301.660156 38.726562 299.195312 36.898438 C 296.730469 35.070312 294.222656 33.304688 291.667969 31.597656 C 289.117188 29.894531 286.527344 28.253906 283.894531 26.675781 C 281.261719 25.097656 278.59375 23.585938 275.886719 22.140625 C 273.179688 20.691406 270.441406 19.3125 267.667969 18.003906 C 264.894531 16.691406 262.089844 15.445312 259.253906 14.273438 C 256.417969 13.097656 253.554688 11.996094 250.667969 10.960938 C 247.777344 9.925781 244.863281 8.964844 241.929688 8.074219 C 238.992188 7.183594 236.035156 6.363281 233.058594 5.617188 C 230.082031 4.875 227.089844 4.203125 224.078125 3.601562 C 221.070312 3.003906 218.046875 2.480469 215.011719 2.03125 C 211.976562 1.578125 208.933594 1.203125 205.878906 0.902344 C 202.824219 0.601562 199.765625 0.375 196.699219 0.226562 C 193.636719 0.0742188 190.570312 0 187.5 0 Z M 299.722656 192.753906 C 289.816406 194.882812 289.816406 196.019531 289.328125 209.492188 C 288.519531 233.378906 284.953125 285.878906 281.527344 308.773438 C 280.070312 318.355469 280.554688 323.566406 269.675781 323.566406 C 264.792969 323.566406 246.757812 324.535156 244.328125 321.945312 C 243.679688 318.679688 245.140625 304.074219 245.300781 299.515625 L 248.21875 231.757812 C 248.867188 205.277344 249.539062 177.015625 247.570312 150.507812 C 247.246094 144.839844 247.570312 145.648438 244.816406 142.058594 C 238.148438 141.574219 235.394531 147.429688 231.320312 153.933594 C 213.773438 181.714844 204.351562 228.84375 202.246094 261.992188 C 201.921875 265.878906 201.109375 269.445312 204.027344 271.574219 C 208.101562 274.328125 222.382812 273.195312 224.191406 276.203125 C 225.324219 278.820312 223.519531 295.878906 223.03125 299.929688 C 222.546875 303.980469 222.382812 307.570312 222.058594 311.503906 C 220.441406 326.296875 224.375 322.730469 194.929688 322.730469 C 188.75 322.730469 174.628906 323.542969 169.257812 322.40625 C 167.152344 318.332031 165.207031 288.773438 164.882812 281.457031 C 164.882812 278.703125 164.214844 272.847656 165.371094 270.742188 C 166.527344 268.632812 177.382812 263.589844 177.546875 248.957031 C 177.707031 234.328125 176.574219 219.074219 176.414062 204.445312 C 176.25 189.816406 176.089844 174.351562 177.058594 160.253906 C 177.382812 157.316406 178.195312 152.453125 175.925781 150.484375 C 175.320312 149.945312 174.621094 149.597656 173.828125 149.445312 C 173.03125 149.289062 172.253906 149.347656 171.492188 149.621094 C 170.726562 149.890625 170.089844 150.339844 169.574219 150.964844 C 169.054688 151.589844 168.734375 152.300781 168.609375 153.101562 C 166.503906 164.46875 168.773438 215 167.316406 219.558594 C 167.164062 219.917969 166.976562 220.257812 166.753906 220.578125 C 166.53125 220.894531 166.277344 221.1875 165.996094 221.457031 C 165.710938 221.722656 165.402344 221.957031 165.070312 222.160156 C 164.738281 222.363281 164.390625 222.527344 164.023438 222.65625 C 163.65625 222.789062 163.277344 222.878906 162.894531 222.929688 C 162.507812 222.980469 162.121094 222.992188 161.730469 222.960938 C 161.34375 222.933594 160.964844 222.863281 160.589844 222.753906 C 160.214844 222.644531 159.855469 222.5 159.515625 222.316406 C 156.433594 220.855469 156.597656 217.683594 156.433594 214.191406 C 156.25 202.175781 156.25 169.191406 157.246094 157.964844 C 157.730469 152.453125 157.730469 153.589844 155.277344 149.675781 C 148.472656 148.867188 148.472656 152.292969 148.148438 158.285156 L 147.476562 203.957031 C 147.476562 207.523438 148.148438 216.132812 147.476562 219.074219 C 147.40625 219.3125 147.320312 219.542969 147.222656 219.769531 C 147.121094 219.996094 147.007812 220.214844 146.878906 220.429688 C 146.75 220.640625 146.609375 220.84375 146.457031 221.039062 C 146.300781 221.230469 146.136719 221.414062 145.960938 221.589844 C 145.78125 221.761719 145.59375 221.921875 145.394531 222.070312 C 145.199219 222.21875 144.992188 222.355469 144.777344 222.480469 C 144.5625 222.601562 144.339844 222.710938 144.109375 222.804688 C 143.882812 222.898438 143.648438 222.980469 143.410156 223.042969 C 143.167969 223.109375 142.925781 223.15625 142.683594 223.191406 C 142.4375 223.226562 142.191406 223.242188 141.941406 223.246094 C 141.695312 223.25 141.449219 223.234375 141.203125 223.207031 C 140.957031 223.175781 140.710938 223.132812 140.472656 223.074219 C 140.230469 223.011719 139.996094 222.9375 139.765625 222.847656 C 139.535156 222.757812 139.308594 222.652344 139.09375 222.535156 C 138.875 222.414062 138.667969 222.285156 138.464844 222.140625 C 138.265625 221.992188 138.074219 221.835938 137.894531 221.667969 C 134.816406 217.917969 136.757812 170.484375 136.921875 162.847656 C 137.082031 158.609375 138.542969 151.644531 135.300781 150 C 129.605469 146.921875 128.355469 152.617188 128.148438 157.152344 C 127.339844 180.878906 126.851562 223.285156 128.308594 247.660156 C 129.121094 257.730469 132.546875 264.234375 138.378906 268.496094 C 142.617188 271.757812 142.777344 269.816406 143.007812 279.234375 C 143.171875 286.179688 146.089844 320.160156 144.792969 321.96875 C 143.496094 323.773438 120.09375 323.425781 115.71875 323.585938 C 101.828125 323.910156 96.367188 326.019531 94.421875 314.816406 C 87.917969 278.585938 88.402344 238.285156 85.164062 201.550781 C 84.351562 192.617188 77.523438 193.425781 64.699219 190.996094 C 59.167969 189.859375 46.179688 189.210938 52.339844 176.527344 C 58.84375 163.21875 79.144531 134.121094 89.722656 122.105469 L 118.957031 90.253906 C 124.167969 85.625 129.027344 80.507812 134.722656 75.972656 C 135.855469 74.976562 135.695312 74.976562 136.828125 74.003906 L 151.621094 61.992188 C 157.476562 57.59375 162.824219 53.703125 169.328125 49.46875 C 175.347656 45.578125 182.175781 40.207031 192.246094 42.339844 C 203.125 44.652344 231.390625 68.980469 241.480469 76.945312 C 242.679688 78.214844 244.03125 79.292969 245.53125 80.183594 C 245.53125 66.296875 245.371094 66.527344 258.703125 68.171875 C 266.179688 69.144531 276.734375 69.144531 279.976562 73.679688 C 282.570312 77.59375 286.480469 112.523438 287.128906 119.976562 C 287.777344 126.644531 287.777344 125.484375 291.179688 129.722656 L 308.078125 152.871094 C 311.503906 158.21875 315.023438 163.425781 318.496094 169.074219 C 331.851562 190.484375 320.277344 188.703125 299.722656 192.753906 Z M 299.722656 192.753906 " fill-opacity="1" fill-rule="evenodd"/></svg>