<svg xmlns="http://www.w3.org/2000/svg" xmlns:xlink="http://www.w3.org/1999/xlink" width="500" zoomAndPan="magnify" viewBox="0 0 375 374.999991" height="500" preserveAspectRatio="xMidYMid meet" version="1.0"><path fill="#009245" d="M 298.132812 166.832031 C 238.125 131.203125 137.804688 127.453125 80.609375 145.265625 C 71.234375 148.078125 61.859375 142.453125 59.046875 134.015625 C 56.234375 124.640625 61.859375 115.265625 70.296875 112.453125 C 136.867188 92.761719 246.5625 96.511719 315.945312 137.765625 C 324.382812 142.453125 327.195312 153.707031 322.507812 162.144531 C 317.820312 168.707031 306.566406 171.519531 298.132812 166.832031 Z M 296.257812 219.335938 C 291.566406 225.898438 283.128906 228.710938 276.566406 224.023438 C 225.9375 193.085938 149.054688 183.707031 89.988281 202.460938 C 82.488281 204.335938 74.046875 200.585938 72.171875 193.085938 C 70.296875 185.582031 74.046875 177.144531 81.546875 175.269531 C 149.992188 154.644531 234.375 164.957031 292.503906 200.585938 C 298.132812 203.398438 300.941406 212.773438 296.257812 219.335938 Z M 273.753906 270.902344 C 270.003906 276.527344 263.441406 278.402344 257.8125 274.652344 C 213.746094 247.464844 158.429688 241.839844 92.800781 256.839844 C 86.238281 258.714844 80.609375 254.027344 78.734375 248.402344 C 76.859375 241.839844 81.546875 236.214844 87.175781 234.339844 C 158.429688 218.398438 220.3125 224.960938 269.066406 254.964844 C 275.628906 257.777344 276.566406 265.277344 273.753906 270.902344 Z M 187.496094 -0.0585938 C 162.871094 -0.0585938 138.488281 4.792969 115.734375 14.214844 C 92.984375 23.640625 72.3125 37.453125 54.902344 54.863281 C 19.734375 90.03125 -0.0195312 137.726562 -0.0195312 187.460938 C -0.0195312 237.191406 19.734375 284.886719 54.902344 320.050781 C 72.3125 337.464844 92.984375 351.277344 115.734375 360.699219 C 138.488281 370.125 162.871094 374.976562 187.496094 374.976562 C 237.226562 374.976562 284.925781 355.21875 320.089844 320.050781 C 355.257812 284.886719 375.011719 237.191406 375.011719 187.460938 C 375.011719 162.832031 370.160156 138.449219 360.738281 115.699219 C 351.316406 92.949219 337.503906 72.277344 320.089844 54.863281 C 302.679688 37.453125 282.007812 23.640625 259.257812 14.214844 C 236.503906 4.792969 212.121094 -0.0585938 187.496094 -0.0585938 Z M 187.496094 -0.0585938 " fill-opacity="1" fill-rule="nonzero"/></svg>