<svg xmlns="http://www.w3.org/2000/svg" xmlns:xlink="http://www.w3.org/1999/xlink" width="500" zoomAndPan="magnify" viewBox="0 0 375 374.999991" height="500" preserveAspectRatio="xMidYMid meet" version="1.0"><defs><clipPath id="812cfeebc3"><path d="M 0 20.390625 L 375 20.390625 L 375 345 L 0 345 Z M 0 20.390625 " clip-rule="nonzero"/></clipPath></defs><g clip-path="url(#812cfeebc3)"><path fill="#00adef" d="M 265.136719 344.96875 C 246.019531 344.96875 229.761719 332.738281 223.679688 315.671875 L 143.996094 315.671875 C 130.152344 354.492188 74.925781 354.492188 61.15625 315.671875 L 58.59375 315.671875 C 26.292969 315.671875 0 289.378906 0 257.152344 L 0 175.855469 C 0.0742188 131.25 11.058594 91.773438 42.699219 62.839844 C 74.121094 34.351562 121.726562 20.507812 188.230469 20.507812 C 223.386719 20.507812 252.757812 40.28125 273.046875 77.78125 C 283.300781 96.679688 289.085938 116.160156 292.089844 128.757812 C 311.9375 132.789062 329.296875 139.011719 344.96875 147.65625 C 363.5 157.835938 375 177.464844 375 198.851562 L 375 257.152344 C 375 289.453125 348.707031 315.746094 316.40625 315.746094 L 306.589844 315.746094 C 300.511719 332.738281 284.253906 344.96875 265.136719 344.96875 Z M 131.835938 286.375 L 235.839844 286.375 C 243.894531 286.375 250.488281 292.96875 250.488281 301.023438 C 251.292969 320.433594 278.980469 320.433594 279.785156 301.023438 C 279.785156 292.96875 286.375 286.375 294.433594 286.375 L 316.40625 286.375 C 332.59375 286.375 345.703125 273.265625 345.703125 257.078125 L 345.703125 198.777344 C 345.703125 188.085938 339.988281 178.34375 330.835938 173.289062 C 315.601562 164.867188 298.09375 159.15625 277.441406 155.859375 C 270.703125 154.90625 265.941406 148.972656 265.28125 143.480469 C 262.28125 127.808594 244.703125 49.804688 188.230469 49.804688 C 47.386719 49.804688 29.296875 117.113281 29.296875 175.78125 L 29.296875 257.078125 C 29.296875 273.265625 42.40625 286.375 58.59375 286.375 L 73.242188 286.375 C 81.296875 286.375 87.890625 292.96875 87.890625 301.023438 C 88.695312 320.433594 116.382812 320.433594 117.1875 301.023438 C 117.1875 292.96875 123.777344 286.375 131.835938 286.375 Z M 208.738281 186.765625 C 203.613281 186.765625 199.070312 189.402344 196.433594 193.433594 C 173.144531 225.4375 134.105469 225.144531 111.109375 193.433594 C 108.472656 189.402344 104.003906 186.765625 98.804688 186.765625 C 87.160156 186.621094 80.054688 200.171875 86.71875 209.691406 C 120.996094 258.835938 186.328125 258.984375 220.753906 209.765625 C 227.488281 200.242188 220.457031 186.621094 208.738281 186.765625 Z M 129.636719 139.890625 C 129.636719 150 121.433594 158.203125 111.328125 158.203125 C 87.011719 157.25 87.011719 122.535156 111.328125 121.582031 C 121.433594 121.582031 129.636719 129.785156 129.636719 139.890625 Z M 196.289062 121.582031 C 186.179688 121.582031 177.976562 129.785156 177.976562 139.890625 C 178.929688 164.207031 213.648438 164.207031 214.597656 139.890625 C 214.597656 129.785156 206.394531 121.582031 196.289062 121.582031 Z M 196.289062 121.582031 " fill-opacity="1" fill-rule="nonzero"/></g></svg>