<svg xmlns="http://www.w3.org/2000/svg" xmlns:xlink="http://www.w3.org/1999/xlink" width="500" zoomAndPan="magnify" viewBox="0 0 375 374.999991" height="500" preserveAspectRatio="xMidYMid meet" version="1.0"><defs><clipPath id="fe27bb6b22"><path d="M 2 24.203125 L 373 24.203125 L 373 350.453125 L 2 350.453125 Z M 2 24.203125 " clip-rule="nonzero"/></clipPath></defs><g clip-path="url(#fe27bb6b22)"><path fill="#ffffff" d="M 165.398438 38.652344 C 145.554688 73.339844 96.539062 160.128906 57.15625 229.875 L 5.054688 322.0625 C 0.367188 330.316406 2.117188 336.84375 3.574219 340 C 6.527344 346.386719 12.832031 349.570312 17.742188 350.433594 L 18.734375 350.601562 L 354.976562 350.609375 L 354.273438 350.585938 C 359.546875 350.910156 366.546875 349.011719 370.375 342.71875 C 372.824219 338.679688 374.582031 331.808594 369.011719 322.039062 L 264.90625 140.144531 L 207.300781 39.53125 C 200.082031 26.914062 191.710938 24.257812 185.957031 24.257812 C 180.34375 24.257812 172.214844 26.753906 165.402344 38.652344 L 165.394531 38.652344 Z M 77.65625 241.820312 C 117.03125 172.101562 166.023438 85.34375 185.832031 50.710938 L 186.070312 50.335938 C 186.324219 50.722656 186.570312 51.074219 186.855469 51.582031 L 244.480469 152.214844 C 244.480469 152.214844 336.417969 312.867188 344.285156 326.601562 L 29.738281 326.59375 L 77.652344 241.820312 " fill-opacity="1" fill-rule="evenodd"/></g><path fill="#ffffff" d="M 187.371094 309.1875 C 197.554688 309.1875 205.8125 300.640625 205.8125 290.101562 C 205.8125 279.570312 197.554688 271.023438 187.371094 271.023438 C 177.167969 271.023438 168.914062 279.570312 168.914062 290.101562 C 168.914062 300.640625 177.167969 309.1875 187.371094 309.1875 " fill-opacity="1" fill-rule="evenodd"/><path fill="#ffffff" d="M 187.371094 122.226562 C 202.085938 122.226562 215.609375 136.144531 214.015625 149.792969 L 201.414062 245.777344 C 200.183594 254.164062 195.125 260.300781 187.371094 260.300781 C 179.613281 260.300781 174.539062 254.164062 173.324219 245.777344 L 160.714844 149.792969 C 159.117188 136.144531 172.644531 122.226562 187.371094 122.226562 " fill-opacity="1" fill-rule="evenodd"/></svg>