<svg xmlns="http://www.w3.org/2000/svg" xmlns:xlink="http://www.w3.org/1999/xlink" width="500" zoomAndPan="magnify" viewBox="0 0 375 374.999991" height="500" preserveAspectRatio="xMidYMid meet" version="1.0"><defs><clipPath id="48c1f50ae8"><path d="M 127.101562 92.464844 L 375 92.464844 L 375 289.257812 L 127.101562 289.257812 Z M 127.101562 92.464844 " clip-rule="nonzero"/></clipPath></defs><path fill="#f8aa4e" d="M 251.339844 157.425781 L 225.453125 119.585938 C 215.019531 104.339844 199.0625 93.449219 180.855469 90.304688 C 154.453125 85.746094 128.410156 97.152344 113.746094 118.695312 L 0 285.8125 C 43.777344 285.8125 84.730469 264.191406 109.421875 228.046875 L 169.753906 139.722656 L 216.027344 209.128906 L 251.339844 157.425781 " fill-opacity="1" fill-rule="nonzero"/><g clip-path="url(#48c1f50ae8)"><path fill="#762a67" d="M 265.578125 150.523438 L 205.246094 238.847656 L 155.402344 164.078125 L 127.410156 226.621094 L 149.550781 258.984375 C 159.984375 274.234375 175.945312 285.125 194.152344 288.265625 C 220.554688 292.824219 246.59375 281.414062 261.253906 259.875 L 375 92.757812 C 331.222656 92.757812 290.273438 114.375 265.578125 150.523438 " fill-opacity="1" fill-rule="nonzero"/></g><path fill="#591b4d" d="M 154.273438 162.386719 L 118.894531 214.175781 L 127.410156 226.621094 L 155.402344 164.078125 L 154.273438 162.386719 " fill-opacity="1" fill-rule="nonzero"/></svg>