<svg xmlns="http://www.w3.org/2000/svg" xmlns:xlink="http://www.w3.org/1999/xlink" width="190" zoomAndPan="magnify" viewBox="0 0 142.5 30.000001" height="40" preserveAspectRatio="xMidYMid meet" version="1.0"><defs><g/><clipPath id="63dab2efde"><path d="M 2.054688 0 L 38 0 L 38 29 L 2.054688 29 Z M 2.054688 0 " clip-rule="nonzero"/></clipPath><clipPath id="c88bc0786e"><path d="M 20.152344 1 L 55.449219 1 L 55.449219 29.003906 L 20.152344 29.003906 Z M 20.152344 1 " clip-rule="nonzero"/></clipPath></defs><g fill="#ffffff" fill-opacity="1"><g transform="translate(62.183837, 23.225808)"><g><path d="M 2.09375 0 L 2.09375 -17.671875 L 6.171875 -17.671875 L 10.78125 -8.890625 L 12.515625 -4.984375 L 12.625 -4.984375 C 12.53125 -5.921875 12.425781 -6.96875 12.3125 -8.125 C 12.195312 -9.28125 12.140625 -10.382812 12.140625 -11.4375 L 12.140625 -17.671875 L 15.9375 -17.671875 L 15.9375 0 L 11.84375 0 L 7.234375 -8.8125 L 5.5 -12.65625 L 5.390625 -12.65625 C 5.484375 -11.675781 5.585938 -10.625 5.703125 -9.5 C 5.816406 -8.382812 5.875 -7.304688 5.875 -6.265625 L 5.875 0 Z M 2.09375 0 "/></g></g></g><g fill="#ffffff" fill-opacity="1"><g transform="translate(80.200739, 23.225808)"><g><path d="M 7.53125 0.328125 C 6.6875 0.328125 5.863281 0.171875 5.0625 -0.140625 C 4.269531 -0.460938 3.570312 -0.921875 2.96875 -1.515625 C 2.363281 -2.109375 1.878906 -2.84375 1.515625 -3.71875 C 1.148438 -4.601562 0.96875 -5.601562 0.96875 -6.71875 C 0.96875 -7.84375 1.148438 -8.84375 1.515625 -9.71875 C 1.878906 -10.59375 2.363281 -11.328125 2.96875 -11.921875 C 3.570312 -12.515625 4.269531 -12.96875 5.0625 -13.28125 C 5.863281 -13.601562 6.6875 -13.765625 7.53125 -13.765625 C 8.382812 -13.765625 9.203125 -13.601562 9.984375 -13.28125 C 10.765625 -12.96875 11.457031 -12.515625 12.0625 -11.921875 C 12.675781 -11.328125 13.160156 -10.59375 13.515625 -9.71875 C 13.878906 -8.84375 14.0625 -7.84375 14.0625 -6.71875 C 14.0625 -5.601562 13.878906 -4.601562 13.515625 -3.71875 C 13.160156 -2.84375 12.675781 -2.109375 12.0625 -1.515625 C 11.457031 -0.921875 10.765625 -0.460938 9.984375 -0.140625 C 9.203125 0.171875 8.382812 0.328125 7.53125 0.328125 Z M 7.53125 -2.90625 C 8.34375 -2.90625 8.957031 -3.242188 9.375 -3.921875 C 9.789062 -4.609375 10 -5.539062 10 -6.71875 C 10 -7.894531 9.789062 -8.828125 9.375 -9.515625 C 8.957031 -10.203125 8.34375 -10.546875 7.53125 -10.546875 C 6.695312 -10.546875 6.078125 -10.203125 5.671875 -9.515625 C 5.265625 -8.828125 5.0625 -7.894531 5.0625 -6.71875 C 5.0625 -5.539062 5.265625 -4.609375 5.671875 -3.921875 C 6.078125 -3.242188 6.695312 -2.90625 7.53125 -2.90625 Z M 7.53125 -2.90625 "/></g></g></g><g fill="#ffffff" fill-opacity="1"><g transform="translate(95.237401, 23.225808)"><g><path d="M 4.84375 0 L 0.328125 -13.4375 L 4.328125 -13.4375 L 6.0625 -7.09375 C 6.25 -6.425781 6.425781 -5.742188 6.59375 -5.046875 C 6.769531 -4.359375 6.945312 -3.660156 7.125 -2.953125 L 7.234375 -2.953125 C 7.398438 -3.660156 7.566406 -4.359375 7.734375 -5.046875 C 7.910156 -5.742188 8.085938 -6.425781 8.265625 -7.09375 L 10.03125 -13.4375 L 13.84375 -13.4375 L 9.453125 0 Z M 4.84375 0 "/></g></g></g><g fill="#ffffff" fill-opacity="1"><g transform="translate(109.407084, 23.225808)"><g><path d="M 5.140625 0.328125 C 4.535156 0.328125 3.984375 0.222656 3.484375 0.015625 C 2.984375 -0.191406 2.5625 -0.476562 2.21875 -0.84375 C 1.875 -1.21875 1.609375 -1.648438 1.421875 -2.140625 C 1.234375 -2.628906 1.140625 -3.160156 1.140625 -3.734375 C 1.140625 -5.148438 1.734375 -6.253906 2.921875 -7.046875 C 4.117188 -7.835938 6.046875 -8.367188 8.703125 -8.640625 C 8.660156 -9.234375 8.476562 -9.707031 8.15625 -10.0625 C 7.84375 -10.414062 7.316406 -10.59375 6.578125 -10.59375 C 6.003906 -10.59375 5.429688 -10.484375 4.859375 -10.265625 C 4.296875 -10.046875 3.6875 -9.75 3.03125 -9.375 L 1.59375 -12 C 2.46875 -12.519531 3.378906 -12.941406 4.328125 -13.265625 C 5.273438 -13.597656 6.28125 -13.765625 7.34375 -13.765625 C 9.070312 -13.765625 10.394531 -13.269531 11.3125 -12.28125 C 12.226562 -11.300781 12.6875 -9.769531 12.6875 -7.6875 L 12.6875 0 L 9.421875 0 L 9.15625 -1.375 L 9.046875 -1.375 C 8.472656 -0.875 7.867188 -0.460938 7.234375 -0.140625 C 6.597656 0.171875 5.898438 0.328125 5.140625 0.328125 Z M 6.5 -2.765625 C 6.957031 -2.765625 7.347656 -2.863281 7.671875 -3.0625 C 7.992188 -3.257812 8.335938 -3.539062 8.703125 -3.90625 L 8.703125 -6.265625 C 7.285156 -6.054688 6.304688 -5.765625 5.765625 -5.390625 C 5.222656 -5.015625 4.953125 -4.5625 4.953125 -4.03125 C 4.953125 -3.601562 5.09375 -3.285156 5.375 -3.078125 C 5.65625 -2.867188 6.03125 -2.765625 6.5 -2.765625 Z M 6.5 -2.765625 "/></g></g></g><g clip-path="url(#63dab2efde)"><path fill="#f8aa4e" d="M 37.84375 10.234375 L 34.15625 4.847656 C 32.671875 2.675781 30.398438 1.125 27.808594 0.675781 C 24.046875 0.0273438 20.339844 1.652344 18.25 4.71875 L 2.054688 28.515625 C 8.289062 28.515625 14.121094 25.433594 17.636719 20.289062 L 26.226562 7.714844 L 32.8125 17.59375 L 37.84375 10.234375 " fill-opacity="1" fill-rule="nonzero"/></g><g clip-path="url(#c88bc0786e)"><path fill="#762a67" d="M 39.871094 9.25 L 31.277344 21.828125 L 24.183594 11.179688 L 20.195312 20.085938 L 23.347656 24.695312 C 24.835938 26.867188 27.105469 28.414062 29.699219 28.863281 C 33.457031 29.511719 37.167969 27.886719 39.253906 24.820312 L 55.449219 1.027344 C 49.214844 1.027344 43.386719 4.105469 39.871094 9.25 " fill-opacity="1" fill-rule="nonzero"/></g><path fill="#591b4d" d="M 24.023438 10.941406 L 18.984375 18.3125 L 20.195312 20.085938 L 24.183594 11.179688 L 24.023438 10.941406 " fill-opacity="1" fill-rule="nonzero"/></svg>